<?xml version="1.0" encoding="iso-8859-1"?>
<!-- Uploaded to: SVG Repo, www.svgrepo.com, Generator: SVG Repo Mixer Tools -->
<!DOCTYPE svg PUBLIC "-//W3C//DTD SVG 1.1//EN" "http://www.w3.org/Graphics/SVG/1.1/DTD/svg11.dtd">
<svg fill="#000000" version="1.1" id="Capa_1" xmlns="http://www.w3.org/2000/svg" xmlns:xlink="http://www.w3.org/1999/xlink" 
	 width="800px" height="800px" viewBox="0 0 86.676 86.676"
	 xml:space="preserve">
<g>
	<g>
		<path d="M46.001,86.676L46.001,86.676c-0.004,0-0.019,0-0.021,0l-4.626-0.029c-1.763-0.014-3.17-1.438-3.161-3.18l0.042-6.314
			c-0.153-0.014-0.307-0.026-0.46-0.041c-0.231-0.021-0.463-0.043-0.694-0.062c-0.498-0.028-0.994-0.108-1.475-0.185
			c-0.228-0.036-0.456-0.073-0.685-0.104c-0.55-0.064-1.082-0.185-1.596-0.299c-0.195-0.044-0.39-0.088-0.585-0.128
			c-0.549-0.103-1.084-0.263-1.603-0.418l-0.554-0.163c-0.521-0.134-1.026-0.332-1.515-0.521c-0.199-0.078-0.398-0.156-0.6-0.229
			c-0.519-0.187-0.988-0.418-1.441-0.642c-0.208-0.104-0.415-0.205-0.624-0.301c-0.259-0.115-0.517-0.267-0.772-0.423
			c-0.092-0.056-0.184-0.11-0.277-0.164l-0.963-0.571c-0.881-0.522-1.425-1.484-1.421-2.51l0.053-7.791
			c0.01-1.617,1.334-2.933,2.952-2.933c0.674,0.004,1.294,0.218,1.813,0.62c0.007,0.006,0.073,0.059,0.08,0.064l0.72,0.561
			c0.069,0.051,0.168,0.13,0.267,0.21c0.088,0.071,0.172,0.151,0.276,0.208c0.26,0.146,0.479,0.286,0.696,0.425
			c0.302,0.192,0.587,0.374,0.865,0.501c0.238,0.109,0.465,0.225,0.692,0.338c0.339,0.172,0.659,0.333,0.974,0.449l0.949,0.372
			c0.091,0.032,0.221,0.085,0.35,0.137c0.141,0.058,0.28,0.118,0.391,0.148l1.971,0.614l1.818,0.424
			c0.202,0.031,0.447,0.067,0.707,0.105l0.121-18.023c-0.466-0.236-0.93-0.477-1.389-0.729c-0.932-0.506-1.901-1.033-2.861-1.625
			c-0.879-0.505-1.756-1.1-2.604-1.675l-0.173-0.117l-1.366-1.008l-1.344-1.129c-0.399-0.373-0.729-0.705-1.059-1.037l-0.235-0.237
			c-0.043-0.043-0.082-0.088-0.119-0.136c-0.11-0.141-0.225-0.276-0.337-0.412c-0.258-0.308-0.549-0.656-0.818-1.074
			c-0.6-0.852-1.273-2.098-1.725-3.201c-0.497-1.255-0.83-2.412-1.023-3.552c-0.25-1.226-0.307-2.48-0.327-3.543l-0.005-0.194
			c-0.003-0.192,0.002-0.256,0.006-0.314l0.063-1.231c0.022-0.409,0.085-0.847,0.148-1.282l0.072-0.517
			c0.076-0.467,0.174-0.865,0.273-1.264c0.043-0.173,0.086-0.345,0.125-0.52c0.134-0.474,0.269-0.858,0.404-1.243l0.172-0.497
			c0.014-0.04,0.029-0.079,0.046-0.118c0.199-0.459,0.411-0.913,0.624-1.367l0.094-0.199c0.021-0.044,0.043-0.087,0.067-0.128
			l0.27-0.462c0.198-0.341,0.396-0.681,0.604-1.014c0.02-0.03,0.04-0.061,0.062-0.091l0.329-0.455
			c0.225-0.314,0.449-0.629,0.688-0.931l0.422-0.487c0.247-0.287,0.494-0.573,0.789-0.886l0.46-0.446
			c0.252-0.245,0.504-0.489,0.773-0.733l0.457-0.376c0.32-0.265,0.642-0.528,0.971-0.774l0.521-0.354
			c0.323-0.222,0.647-0.441,0.98-0.645l0.542-0.302c0.345-0.192,0.689-0.385,1.043-0.557l0.553-0.246
			c0.361-0.162,0.724-0.324,1.094-0.464l0.564-0.195c0.37-0.129,0.739-0.257,1.114-0.366l0.576-0.146
			c0.279-0.071,0.559-0.143,0.839-0.209l0.04-6.049C39.077,1.019,40.104,0,41.356,0l4.642,0.03c1.257,0.009,2.265,1.03,2.256,2.276
			l-0.038,5.725c0.369,0.024,0.73,0.054,1.092,0.092c0.525,0.044,1.08,0.093,1.634,0.175c0.163,0.023,0.33,0.045,0.497,0.065
			c0.386,0.048,0.771,0.098,1.155,0.178c0.16,0.032,0.33,0.062,0.499,0.091c0.386,0.067,0.769,0.136,1.148,0.238
			c0.142,0.038,0.292,0.073,0.44,0.109c0.375,0.089,0.802,0.19,1.234,0.35c0.438,0.134,1.041,0.335,1.652,0.625l0.085,0.036
			c0.232,0.1,0.523,0.225,0.821,0.416l0.673,0.39c0.635,0.369,1.027,1.057,1.023,1.794l-0.051,7.598
			c-0.004,1.138-0.938,2.067-2.08,2.067c-0.451-0.004-0.867-0.14-1.219-0.394l-0.643-0.462c-0.061-0.04-0.151-0.107-0.243-0.176
			c-0.08-0.06-0.159-0.123-0.247-0.172c-0.176-0.097-0.352-0.203-0.526-0.309c-0.235-0.142-0.468-0.285-0.718-0.4
			c-0.164-0.07-0.352-0.161-0.537-0.252c-0.259-0.127-0.503-0.246-0.72-0.316c-0.206-0.071-0.381-0.138-0.555-0.204
			c-0.289-0.11-0.562-0.215-0.811-0.273c-0.209-0.055-0.388-0.106-0.565-0.159c-0.278-0.081-0.558-0.167-0.847-0.215
			c-0.224-0.04-0.425-0.083-0.626-0.126c-0.275-0.06-0.55-0.122-0.832-0.151c-0.217-0.026-0.41-0.054-0.604-0.081
			c-0.127-0.018-0.255-0.035-0.383-0.052L47.83,38.707c0.622,0.309,1.242,0.619,1.85,0.955c1,0.528,1.93,1.053,2.814,1.591
			c0.944,0.562,1.875,1.165,2.753,1.787c0.863,0.601,1.726,1.274,2.624,2.055c1.03,0.937,1.786,1.738,2.405,2.55
			c0.331,0.43,0.687,0.908,1.009,1.454c0.264,0.382,0.497,0.841,0.724,1.284l0.101,0.195c0.195,0.381,0.355,0.779,0.514,1.181
			l0.162,0.407c0.022,0.058,0.044,0.115,0.061,0.176c0.044,0.163,0.097,0.323,0.147,0.482c0.114,0.354,0.244,0.758,0.319,1.203
			c0.138,0.595,0.229,1.127,0.275,1.645c0.072,0.488,0.087,0.945,0.102,1.389l0.012,0.322c0.015,0.411-0.007,0.797-0.03,1.184
			c-0.01,0.17-0.021,0.34-0.025,0.513c-0.023,0.428-0.08,0.821-0.14,1.215c-0.024,0.169-0.051,0.338-0.071,0.507
			c-0.077,0.449-0.168,0.816-0.259,1.184c-0.042,0.172-0.085,0.344-0.124,0.517c-0.012,0.051-0.024,0.103-0.043,0.151l-0.06,0.177
			c-0.158,0.465-0.316,0.93-0.494,1.387c-0.553,1.254-1.113,2.251-1.739,3.108l-0.249,0.332c-0.252,0.339-0.537,0.724-0.896,1.082
			l-0.021,0.024c-0.344,0.382-0.732,0.813-1.188,1.195c-0.328,0.31-0.784,0.723-1.318,1.097l-0.594,0.447
			c-0.221,0.152-0.39,0.257-0.561,0.361l-0.896,0.555c-0.034,0.021-0.069,0.041-0.104,0.059l-0.702,0.361
			c-0.584,0.311-1.097,0.546-1.594,0.732c-0.438,0.186-0.993,0.416-1.587,0.59l-0.368,0.119c-0.392,0.131-0.798,0.265-1.246,0.361
			c-0.046,0.014-0.096,0.025-0.148,0.039l-0.058,8.805C49.179,85.255,47.747,86.676,46.001,86.676z M26.007,62.706l-0.035,7.657
			l0.881,0.513c0.091,0.051,0.214,0.125,0.337,0.198c0.146,0.09,0.291,0.183,0.446,0.252c0.25,0.113,0.484,0.229,0.719,0.345
			c0.396,0.194,0.771,0.38,1.133,0.51c0.228,0.083,0.452,0.171,0.676,0.259c0.423,0.166,0.823,0.321,1.203,0.42
			c0.235,0.065,0.436,0.125,0.636,0.187c0.461,0.14,0.897,0.271,1.313,0.349c0.24,0.049,0.452,0.096,0.663,0.143
			c0.462,0.104,0.898,0.201,1.313,0.251c0.272,0.034,0.528,0.075,0.785,0.116c0.427,0.066,0.83,0.132,1.208,0.153
			c0.275,0.021,0.521,0.044,0.768,0.067c0.429,0.039,0.858,0.08,1.286,0.097l0.453,0.015c0.813,0.025,1.458,0.695,1.452,1.51
			l-0.052,7.74c-0.001,0.086,0.07,0.16,0.159,0.16l4.647,0.03l0.002,1.5v-1.5c0.104,0,0.189-0.085,0.19-0.188l0.065-10.014
			c0.006-0.697,0.493-1.3,1.176-1.451c0.116-0.024,0.229-0.056,0.344-0.084l0.26-0.065c0.264-0.054,0.456-0.093,0.646-0.144
			c0.401-0.091,0.711-0.195,1.023-0.299l0.438-0.143c0.461-0.135,0.912-0.323,1.351-0.506c0.424-0.161,0.825-0.348,1.311-0.604
			l0.667-0.343l0.855-0.529c0.129-0.078,0.258-0.158,0.383-0.242l0.578-0.438c0.418-0.293,0.781-0.625,1.092-0.914
			c0.354-0.3,0.643-0.62,0.948-0.96l0.072-0.08c0.255-0.258,0.451-0.522,0.66-0.805l0.258-0.343
			c0.476-0.652,0.932-1.469,1.371-2.463c0.136-0.354,0.278-0.775,0.423-1.199l0.035-0.104c0.037-0.165,0.078-0.33,0.119-0.494
			c0.074-0.303,0.15-0.604,0.205-0.911c0.013-0.115,0.041-0.311,0.07-0.504c0.045-0.301,0.092-0.603,0.108-0.9
			c0.005-0.166,0.017-0.363,0.028-0.563c0.019-0.291,0.037-0.583,0.026-0.888l-0.012-0.344c-0.014-0.383-0.023-0.746-0.074-1.068
			c-0.006-0.034-0.01-0.068-0.013-0.104c-0.034-0.389-0.105-0.812-0.233-1.369c-0.057-0.316-0.143-0.584-0.233-0.867
			c-0.057-0.176-0.111-0.35-0.161-0.526l-0.146-0.36c-0.121-0.308-0.239-0.614-0.39-0.906l-0.102-0.208
			c-0.191-0.378-0.374-0.734-0.582-1.04c-0.291-0.486-0.581-0.875-0.857-1.234c-0.518-0.679-1.139-1.335-2.018-2.133
			c-0.791-0.688-1.569-1.297-2.354-1.842c-0.824-0.583-1.688-1.145-2.575-1.672c-0.847-0.514-1.725-1.01-2.697-1.523
			c-0.609-0.338-1.208-0.635-1.806-0.932l-0.801-0.4c-0.507-0.258-0.825-0.779-0.821-1.348l0.151-22.749
			c0.003-0.414,0.177-0.81,0.48-1.091c0.305-0.282,0.713-0.427,1.125-0.396l1.07,0.076c0.381,0.03,0.746,0.081,1.11,0.132
			l0.528,0.071c0.365,0.038,0.744,0.117,1.123,0.198c0.169,0.036,0.337,0.073,0.506,0.104c0.417,0.069,0.822,0.188,1.18,0.292
			c0.149,0.044,0.301,0.088,0.451,0.128c0.407,0.097,0.804,0.248,1.151,0.382c0.146,0.055,0.29,0.11,0.437,0.161
			c0.391,0.126,0.76,0.307,1.086,0.466c0.146,0.071,0.293,0.144,0.441,0.209c0.379,0.173,0.711,0.369,1.042,0.568
			c0.141,0.085,0.279,0.169,0.422,0.249l0.036-5.307l-0.257-0.149c-0.177-0.112-0.312-0.163-0.443-0.22l-0.146-0.064
			c-0.48-0.227-0.957-0.385-1.366-0.512c-0.366-0.132-0.669-0.201-0.97-0.272c-0.174-0.042-0.348-0.083-0.52-0.129
			c-0.3-0.08-0.595-0.13-0.889-0.181c-0.196-0.034-0.392-0.068-0.588-0.108c-0.313-0.064-0.619-0.102-0.925-0.14
			c-0.188-0.023-0.376-0.047-0.564-0.074c-0.493-0.073-0.985-0.114-1.478-0.156c-0.787-0.082-1.542-0.119-2.3-0.158
			c-0.801-0.04-1.523-0.71-1.52-1.513l0.043-6.413L42.06,3.004l-0.043,6.59c-0.005,0.728-0.531,1.347-1.248,1.469l-0.89,0.151
			c-0.271,0.062-0.609,0.148-0.948,0.235l-0.542,0.137c-0.266,0.079-0.585,0.191-0.905,0.303l-0.547,0.188
			c-0.257,0.099-0.563,0.237-0.87,0.375l-0.532,0.236c-0.239,0.118-0.533,0.283-0.827,0.448l-0.514,0.284
			c-0.222,0.138-0.503,0.33-0.784,0.521l-0.483,0.327c-0.222,0.169-0.507,0.404-0.792,0.64l-0.415,0.34
			c-0.179,0.165-0.404,0.385-0.63,0.604l-0.43,0.414c-0.203,0.218-0.421,0.472-0.64,0.726l-0.394,0.452
			c-0.152,0.198-0.35,0.476-0.548,0.752l-0.314,0.436c-0.182,0.291-0.354,0.589-0.526,0.886l-0.309,0.557
			c-0.192,0.41-0.386,0.821-0.566,1.237L27.2,21.781c-0.116,0.328-0.232,0.657-0.329,0.991c-0.022,0.112-0.07,0.306-0.118,0.498
			c-0.08,0.321-0.161,0.642-0.217,0.975c-0.016,0.134-0.044,0.325-0.072,0.518c-0.05,0.344-0.103,0.688-0.12,1.006l-0.061,1.178
			c0,0.005-0.005,0.104-0.005,0.107l0.005,0.224c0.019,0.94,0.065,2.027,0.276,3.065c0.167,0.979,0.445,1.938,0.858,2.982
			c0.36,0.881,0.924,1.926,1.43,2.646c0.202,0.312,0.411,0.562,0.633,0.826c0.114,0.138,0.229,0.274,0.341,0.416l0.178,0.179
			c0.306,0.309,0.611,0.617,0.925,0.912l1.206,1.015l1.364,0.994c0.84,0.57,1.635,1.108,2.456,1.582
			c0.929,0.571,1.862,1.078,2.765,1.568c0.605,0.333,1.215,0.639,1.823,0.945l0.309,0.156c0.509,0.256,0.828,0.778,0.824,1.349
			l-0.139,20.629c-0.003,0.411-0.174,0.803-0.475,1.084c-0.3,0.282-0.701,0.43-1.112,0.403l-0.168-0.01
			c-0.157-0.01-0.313-0.018-0.47-0.029c-0.037-0.004-0.074-0.008-0.11-0.014l-0.743-0.111c-0.404-0.059-0.808-0.116-1.208-0.186
			l-1.96-0.451c-0.037-0.01-0.073-0.02-0.108-0.029l-1.977-0.618c-0.152-0.041-0.409-0.142-0.667-0.244l-1.242-0.487
			c-0.446-0.164-0.86-0.373-1.261-0.574c-0.193-0.099-0.386-0.195-0.583-0.287c-0.468-0.211-0.875-0.471-1.234-0.7
			c-0.177-0.112-0.353-0.226-0.536-0.33c-0.283-0.151-0.523-0.349-0.717-0.505c-0.062-0.051-0.122-0.1-0.187-0.146L26.007,62.706z
			 M47.07,67.794c-0.34,0-0.674-0.115-0.943-0.334c-0.367-0.297-0.573-0.749-0.556-1.222l0.645-17.678
			c0.021-0.543,0.332-1.033,0.815-1.281c0.482-0.246,1.063-0.213,1.516,0.088c0.331,0.221,0.648,0.462,0.964,0.703l1.01,0.773
			c0.036,0.028,0.071,0.059,0.105,0.09l0.863,0.807c0.376,0.351,0.804,0.748,1.174,1.236l0.191,0.226
			c0.321,0.379,0.688,0.809,0.978,1.342l0.41,0.647c0.168,0.26,0.272,0.521,0.357,0.733c0.027,0.065,0.054,0.134,0.083,0.198
			l0.146,0.335c0.083,0.19,0.165,0.381,0.235,0.571c0.021,0.059,0.038,0.117,0.052,0.177l0.171,0.735
			c0.174,0.555,0.198,1.114,0.22,1.611c0.006,0.133,0.013,0.264,0.021,0.395l0.019,0.357c0.006,0.105,0,0.21-0.016,0.311
			l-0.029,0.367c-0.009,0.267-0.057,0.586-0.109,0.902c-0.103,0.667-0.27,1.303-0.504,1.936c-0.195,0.545-0.472,1.096-0.861,1.719
			c-0.479,0.68-0.876,1.143-1.299,1.529c-0.501,0.465-1.005,0.846-1.531,1.156c-0.25,0.164-0.542,0.326-0.839,0.465
			c-0.224,0.123-0.529,0.265-0.85,0.385c-0.435,0.19-0.978,0.378-1.695,0.578c-0.084,0.024-0.18,0.049-0.274,0.07l-0.1,0.024
			C47.316,67.779,47.193,67.794,47.07,67.794z M49.107,51.619l-0.458,12.566c0.135-0.059,0.251-0.115,0.364-0.177
			c0.26-0.124,0.436-0.226,0.604-0.334c0.391-0.231,0.726-0.487,1.075-0.813c0.272-0.25,0.528-0.551,0.837-0.985
			c0.226-0.365,0.413-0.733,0.54-1.087c0.168-0.453,0.284-0.893,0.35-1.316c0.044-0.267,0.079-0.463,0.087-0.664l0.036-0.476
			l-0.01-0.208c-0.009-0.124-0.018-0.282-0.023-0.439c-0.014-0.32-0.028-0.684-0.089-0.855c-0.016-0.049-0.03-0.098-0.041-0.146
			l-0.163-0.701c-0.043-0.108-0.091-0.218-0.139-0.326l-0.137-0.321c-0.024-0.047-0.074-0.17-0.124-0.293
			c-0.032-0.08-0.059-0.164-0.104-0.238l-0.468-0.743c-0.19-0.344-0.427-0.621-0.677-0.916l-0.259-0.309
			c-0.252-0.329-0.551-0.605-0.865-0.9L49.107,51.619z M39.638,37.722c-0.286,0-0.572-0.082-0.82-0.244
			c-0.441-0.289-0.868-0.601-1.287-0.921c-0.442-0.33-1.011-0.753-1.508-1.263L35.814,35.1c-0.365-0.339-0.779-0.723-1.145-1.234
			l-0.502-0.621c-0.176-0.239-0.303-0.467-0.424-0.696l-0.117-0.218c-0.078-0.149-0.115-0.213-0.151-0.275
			c-0.11-0.193-0.248-0.435-0.354-0.737l-0.26-0.781c-0.21-0.524-0.284-1.02-0.35-1.459c-0.021-0.139-0.042-0.278-0.068-0.416
			c-0.113-0.446-0.116-0.962-0.119-1.417c-0.001-0.172-0.001-0.344-0.012-0.51l-0.014-0.497c-0.005-0.039,0.001-0.232,0.018-0.422
			l0.02-0.246c0.021-0.297,0.046-0.593,0.103-0.883c0.087-0.619,0.241-1.26,0.449-1.836c0.079-0.259,0.207-0.584,0.361-0.905
			c0.11-0.276,0.289-0.583,0.433-0.829c0.299-0.521,0.626-0.973,1.124-1.553c0.286-0.303,0.559-0.549,0.832-0.794
			c0.15-0.134,0.3-0.268,0.44-0.401c0.063-0.06,0.13-0.114,0.202-0.162c0.337-0.227,0.683-0.439,1.026-0.652l0.375-0.232
			c0.079-0.049,0.163-0.092,0.25-0.125c0.209-0.082,0.415-0.167,0.621-0.251c0.3-0.123,0.598-0.245,0.899-0.358
			c0.06-0.022,0.12-0.04,0.183-0.055l0.321-0.075c0.454-0.105,0.933,0.005,1.295,0.302c0.361,0.297,0.563,0.745,0.546,1.213
			l-0.66,18.304c-0.02,0.541-0.328,1.029-0.809,1.278C40.111,37.666,39.874,37.722,39.638,37.722z M38.052,20.631
			c-0.134,0.125-0.274,0.25-0.414,0.375c-0.213,0.191-0.427,0.38-0.609,0.571c-0.319,0.375-0.544,0.683-0.75,1.041
			c-0.106,0.182-0.211,0.354-0.288,0.544c-0.123,0.263-0.199,0.448-0.26,0.642c-0.158,0.447-0.265,0.891-0.335,1.379
			c-0.045,0.246-0.055,0.425-0.067,0.604l-0.031,0.401L35.31,26.6c0.012,0.168,0.014,0.396,0.016,0.625
			c0.002,0.301,0.004,0.613,0.048,0.788c0.051,0.256,0.079,0.438,0.106,0.618c0.048,0.323,0.09,0.603,0.175,0.804
			c0.015,0.035,0.028,0.072,0.04,0.108l0.268,0.809c0.021,0.062,0.073,0.135,0.117,0.211c0.065,0.115,0.131,0.23,0.189,0.349
			c0.014,0.017,0.071,0.127,0.13,0.236c0.052,0.099,0.099,0.199,0.153,0.276l0.509,0.63c0.239,0.331,0.496,0.569,0.793,0.845
			l0.28,0.262c0.036,0.037,0.073,0.074,0.11,0.11l0.471-13.061C38.492,20.348,38.271,20.486,38.052,20.631z"/>
	</g>
</g>
</svg>